<svg width="128" height="128" viewBox="0 0 128 128" fill="none" xmlns="http://www.w3.org/2000/svg">
<path d="M116.65 4.83008H11.3601C7.75366 4.83008 4.83008 7.75366 4.83008 11.3601V116.65C4.83008 120.257 7.75366 123.18 11.3601 123.18H116.65C120.257 123.18 123.18 120.257 123.18 116.65V11.3601C123.18 7.75366 120.257 4.83008 116.65 4.83008Z" fill="#3D5A98"/>
<path d="M86.4801 123.17V77.3399H101.86L104.16 59.4799H86.4801V48.0799C86.4801 42.9099 87.9201 39.3799 95.3301 39.3799H104.79V23.3799C100.209 22.9034 95.6057 22.6764 91.0001 22.6999C77.3801 22.6999 68.0001 30.9999 68.0001 46.3099V59.4799H52.6201V77.3399H68.0001V123.17H86.4801Z" fill="white"/>
</svg>
