<svg width="127" height="52" viewBox="0 0 127 52" fill="none" xmlns="http://www.w3.org/2000/svg">
<rect x="1.5" y="1.5" width="124" height="49" stroke="black" stroke-width="3"/>
<path d="M55.875 19.8906C55.3281 18.0625 54.3594 16.6406 52.9688 15.625C51.5938 14.5938 49.8906 14.0781 47.8594 14.0781C46.0156 14.0781 44.3828 14.5469 42.9609 15.4844C41.5391 16.4062 40.4297 17.7656 39.6328 19.5625C38.8359 21.3594 38.4375 23.5 38.4375 25.9844C38.4375 28.5156 38.8359 30.6875 39.6328 32.5C40.4297 34.2969 41.5469 35.6641 42.9844 36.6016C44.4219 37.5234 46.0938 37.9844 48 37.9844C49.6875 37.9844 51.1641 37.6641 52.4297 37.0234C53.6953 36.3672 54.6797 35.4453 55.3828 34.2578C56.0859 33.0547 56.4531 31.6562 56.4844 30.0625H48.6094V25.2344H62.3906V29.3125C62.3906 32.1719 61.7734 34.6719 60.5391 36.8125C59.3203 38.9375 57.625 40.5781 55.4531 41.7344C53.2812 42.8906 50.7969 43.4688 48 43.4688C44.8906 43.4688 42.1484 42.7656 39.7734 41.3594C37.3984 39.9375 35.5547 37.9141 34.2422 35.2891C32.9453 32.6641 32.2969 29.5781 32.2969 26.0312C32.2969 22.4844 32.9609 19.3984 34.2891 16.7734C35.6328 14.1328 37.4766 12.1094 39.8203 10.7031C42.1797 9.29688 44.8438 8.59375 47.8125 8.59375C50.2812 8.59375 52.5391 9.07031 54.5859 10.0234C56.6328 10.9766 58.3125 12.3125 59.625 14.0312C60.9375 15.7344 61.7656 17.6875 62.1094 19.8906H55.875ZM80.1562 35.8281H80.5312L89.3906 9.0625H96.0938L84.0938 43H76.5938L64.6406 9.0625H71.3438L80.1562 35.8281Z" fill="black"/>
</svg>
