<svg width="83" height="83" viewBox="0 0 83 83" fill="none" xmlns="http://www.w3.org/2000/svg">
<path d="M41.5001 6.91675C36.9585 6.91675 32.4615 7.81127 28.2656 9.54925C24.0698 11.2872 20.2573 13.8346 17.046 17.046C10.5603 23.5316 6.91675 32.328 6.91675 41.5001C6.91675 56.7859 16.8422 69.7547 30.5717 74.3542C32.3009 74.6309 32.8542 73.5588 32.8542 72.6251V66.7805C23.2747 68.8555 21.2342 62.1463 21.2342 62.1463C19.6434 58.1347 17.3955 57.0626 17.3955 57.0626C14.2484 54.9184 17.6376 54.9876 17.6376 54.9876C21.0959 55.2297 22.9288 58.5497 22.9288 58.5497C25.9376 63.8063 31.0213 62.2501 32.9926 61.4201C33.3038 59.1722 34.203 57.6505 35.1713 56.7859C27.4938 55.9213 19.4359 52.9472 19.4359 39.7709C19.4359 35.9322 20.7501 32.8542 22.998 30.3988C22.6522 29.5342 21.4417 25.9376 23.3438 21.2688C23.3438 21.2688 26.2488 20.3351 32.8542 24.7963C35.5863 24.0355 38.5605 23.6551 41.5001 23.6551C44.4397 23.6551 47.4138 24.0355 50.1459 24.7963C56.7513 20.3351 59.6563 21.2688 59.6563 21.2688C61.5584 25.9376 60.348 29.5342 60.0022 30.3988C62.2501 32.8542 63.5642 35.9322 63.5642 39.7709C63.5642 52.9817 55.4717 55.8867 47.7597 56.7513C49.0047 57.8234 50.1459 59.933 50.1459 63.1492V72.6251C50.1459 73.5588 50.6992 74.6655 52.463 74.3542C66.1926 69.7201 76.0834 56.7859 76.0834 41.5001C76.0834 36.9585 75.1889 32.4615 73.4509 28.2656C71.7129 24.0698 69.1655 20.2573 65.9542 17.046C62.7428 13.8346 58.9304 11.2872 54.7346 9.54925C50.5387 7.81127 46.0416 6.91675 41.5001 6.91675Z" fill="black"/>
</svg>
